<svg xmlns="http://www.w3.org/2000/svg" width="1536" height="1024" viewBox="0 0 1536 1024" role="img" aria-label="PDF to Hybrid RAG pipeline diagram">
  <rect width="1536" height="1024" fill="#ffffff"/>
  <defs>
    <marker id="arrow" markerWidth="16" markerHeight="16" refX="14" refY="8" orient="auto">
      <path d="M0,0 L16,8 L0,16 z" fill="#1f4e79"/>
    </marker>
  </defs>
  <g fill="#f8fafc" stroke="#9fb6ce" stroke-width="3">
    <rect x="80" y="368" width="170" height="220" rx="20"/>
    <rect x="280" y="330" width="170" height="78" rx="20"/>
    <rect x="280" y="430" width="170" height="78" rx="20"/>
    <rect x="280" y="530" width="170" height="78" rx="20"/>
    <rect x="530" y="292" width="210" height="128" rx="24"/>
    <rect x="530" y="500" width="210" height="128" rx="24"/>
    <rect x="820" y="292" width="220" height="128" rx="24"/>
    <rect x="820" y="500" width="220" height="128" rx="24"/>
    <rect x="1128" y="386" width="250" height="160" rx="28"/>
  </g>
  <g stroke="#1f4e79" stroke-width="5" fill="none" marker-end="url(#arrow)">
    <path d="M250 478 H278"/>
    <path d="M450 370 H524"/>
    <path d="M450 470 C490 470 490 356 524 356"/>
    <path d="M450 570 C490 570 490 564 524 564"/>
    <path d="M740 356 H814"/>
    <path d="M740 564 H814"/>
    <path d="M1040 356 C1090 356 1088 440 1122 440"/>
    <path d="M1040 564 C1090 564 1088 492 1122 492"/>
  </g>
  <g stroke="#2e75b6" stroke-width="5" fill="#ffffff">
    <circle cx="595" cy="346" r="18"/>
    <circle cx="638" cy="376" r="18"/>
    <circle cx="684" cy="344" r="18"/>
    <line x1="595" y1="346" x2="638" y2="376"/>
    <line x1="638" y1="376" x2="684" y2="344"/>
    <circle cx="892" cy="548" r="18"/>
    <circle cx="942" cy="528" r="18"/>
    <circle cx="980" cy="574" r="18"/>
    <line x1="892" y1="548" x2="942" y2="528"/>
    <line x1="942" y1="528" x2="980" y2="574"/>
  </g>
  <g fill="#1f4e79" opacity="0.18">
    <rect x="118" y="424" width="96" height="12" rx="6"/>
    <rect x="118" y="464" width="96" height="12" rx="6"/>
    <rect x="118" y="504" width="70" height="12" rx="6"/>
    <circle cx="1242" cy="466" r="54"/>
    <rect x="1196" y="458" width="118" height="16" rx="8" fill="#2e75b6"/>
  </g>
</svg>
