<svg xmlns="http://www.w3.org/2000/svg" width="1536" height="1024" viewBox="0 0 1536 1024" role="img" aria-label="Aviation GraphRAG academic cover diagram">
  <rect width="1536" height="1024" fill="#f8fafc"/>
  <rect x="96" y="112" width="1344" height="800" rx="48" fill="#ffffff" stroke="#d8e2ee" stroke-width="3"/>
  <path d="M230 650 C470 555 718 565 1120 394" fill="none" stroke="#1f4e79" stroke-width="10" stroke-linecap="round" opacity="0.12"/>
  <path d="M260 674 C515 585 766 594 1194 426" fill="none" stroke="#2e75b6" stroke-width="5" stroke-linecap="round" opacity="0.22"/>
  <g fill="#ffffff" stroke="#8fb3d8" stroke-width="3">
    <rect x="212" y="216" width="240" height="300" rx="20"/>
    <rect x="242" y="246" width="240" height="300" rx="20" opacity="0.9"/>
    <rect x="272" y="276" width="240" height="300" rx="20" opacity="0.85"/>
  </g>
  <g stroke="#b8c8da" stroke-width="8" stroke-linecap="round">
    <line x1="310" y1="344" x2="468" y2="344"/>
    <line x1="310" y1="404" x2="472" y2="404"/>
    <line x1="310" y1="464" x2="430" y2="464"/>
  </g>
  <g stroke="#1f4e79" stroke-width="5" opacity="0.82">
    <line x1="710" y1="326" x2="836" y2="262"/>
    <line x1="710" y1="326" x2="890" y2="392"/>
    <line x1="836" y1="262" x2="1012" y2="322"/>
    <line x1="890" y1="392" x2="1012" y2="322"/>
    <line x1="890" y1="392" x2="1038" y2="506"/>
    <line x1="1012" y1="322" x2="1156" y2="438"/>
  </g>
  <g fill="#ffffff" stroke="#2e75b6" stroke-width="5">
    <circle cx="710" cy="326" r="36"/>
    <circle cx="836" cy="262" r="30"/>
    <circle cx="890" cy="392" r="34"/>
    <circle cx="1012" cy="322" r="38"/>
    <circle cx="1038" cy="506" r="30"/>
    <circle cx="1156" cy="438" r="36"/>
  </g>
  <g fill="#eaf3fb" stroke="#2e75b6" stroke-width="3" opacity="0.95">
    <rect x="660" y="628" width="428" height="44" rx="22"/>
    <rect x="718" y="696" width="428" height="44" rx="22"/>
    <rect x="776" y="764" width="428" height="44" rx="22"/>
  </g>
  <circle cx="1214" cy="224" r="78" fill="#1f4e79" opacity="0.08"/>
  <circle cx="1250" cy="224" r="42" fill="#2e75b6" opacity="0.18"/>
</svg>
